#!OML:ASF I:\Actors\actors\Patient Classification 2\Patient 1\Session 1\actor1.ASF
:FULLY-SPECIFIED
:DEGREES
676
root -0.765443 17.453 7.82593 -8.99141 -0.938244 -4.26794
lowerback 4.19686 0.58719 -3.7639
upperback -7.43305 0.436896 -0.030446
thorax -10.305 0.504949 2.01887
lowerneck -47.8676 -4.84771 -3.7036
upperneck 14.443 -4.49748 2.15526
head 11.533 -1.83394 0.495091
rclavicle -1.74931e-014 1.59028e-014
rhumerus 24.7273 -35.9384 -14.6579
rradius 68.5788
rwrist 0.225978
rhand -50.7585 -50.4888
rfingers 7.12502
rthumb -23.317 -79.0967
lclavicle -1.74931e-014 1.59028e-014
lhumerus 43.4709 30.5445 37.3716
lradius 63.9561
lwrist -3.13173
lhand -36.6588 -57.837
lfingers 7.12502
lthumb -9.74544 -28.0824
rfemur 37.5013 2.22093 20.0959
rtibia -21.4727
rfoot -11.0184 -17.7195
rtoes -5.86011
lfemur 41.1734 0.803595 -13.5897
ltibia -32.5918
lfoot 3.70685 16.0285
ltoes -10.1533
677
root -0.768961 17.496 7.8257 -8.74941 -0.950545 -4.25863
lowerback 4.17517 0.579081 -3.70073
upperback -7.49354 0.43197 -0.0253443
thorax -10.3583 0.499614 1.98936
lowerneck -47.9528 -4.93991 -3.78377
upperneck 14.5605 -4.59412 2.25994
head 11.5952 -1.86276 0.528289
rclavicle 1.03368e-014 1.59028e-014
rhumerus 25.0625 -36.304 -14.4513
rradius 67.9911
rwrist 0.578015
rhand -50.2066 -48.177
rfingers 7.12502
rthumb -22.7874 -76.8511
lclavicle 1.03368e-014 1.59028e-014
lhumerus 43.8137 30.9082 37.2571
lradius 63.4484
lwrist -3.29136
lhand -37.1315 -57.2897
lfingers 7.12502
lthumb -10.2015 -27.557
rfemur 36.7722 2.28644 20.1294
rtibia -20.6401
rfoot -11.3222 -17.6996
rtoes -5.25596
lfemur 40.6056 0.604107 -13.6666
ltibia -32.0405
lfoot 3.62536 16.3208
ltoes -9.36227
678
root -0.771206 17.5436 7.82287 -8.49371 -0.9658 -4.23365
lowerback 4.17269 0.572502 -3.63227
upperback -7.5646 0.429401 -0.0110984
thorax -10.4352 0.495936 1.96624
lowerneck -48.0462 -4.93819 -3.7151
upperneck 14.7164 -4.59567 2.11766
head 11.6609 -1.88121 0.458161
rclavicle 1.07344e-014 -1.59028e-015
rhumerus 25.47 -36.5943 -14.2691
rradius 67.3297
rwrist 0.69131
rhand -50.008 -47.1436
rfingers 7.12502
rthumb -22.5968 -75.841
lclavicle 1.07344e-014 -1.59028e-015
lhumerus 44.007 31.2818 36.9745
lradius 62.9858
lwrist -3.183
lhand -37.1669 -56.9378
lfingers 7.12502
lthumb -10.2357 -27.2068
rfemur 36.0003 2.38228 20.133
rtibia -19.7886
rfoot -11.5664 -17.6963
rtoes -4.25467
lfemur 39.9887 0.357702 -13.7743
ltibia -31.4555
lfoot 3.62659 16.6355
ltoes -8.65554
679
root -0.774475 17.5968 7.81722 -8.27422 -0.9652 -4.22494
lowerback 4.21683 0.565178 -3.59842
upperback -7.5792 0.425262 0.0402603
thorax -10.478 0.494713 2.00258
lowerneck -48.1478 -4.95823 -3.70983
upperneck 14.7786 -4.61509 2.09477
head 11.6953 -1.89203 0.443042
rclavicle -1.35174e-014 -1.51076e-014
rhumerus 26.0169 -36.9488 -14.1017
rradius 66.581
rwrist 0.677886
rhand -50.2512 -48.3377
rfingers 7.12502
rthumb -22.8301 -77.0065
lclavicle -1.35174e-014 -1.51076e-014
lhumerus 44.1966 31.6741 36.6009
lradius 62.4293
lwrist -3.19121
lhand -37.5518 -56.6837
lfingers 7.12502
lthumb -10.6069 -26.9714
rfemur 35.2477 2.44464 20.1399
rtibia -18.912
rfoot -11.6456 -17.7341
rtoes -3.53016
lfemur 39.3804 0.00882395 -13.8816
ltibia -30.8401
lfoot 3.74879 16.9461
ltoes -8.05554
680
root -0.777726 17.6543 7.80871 -8.07383 -1.01682 -4.2641
lowerback 4.12865 0.545274 -3.57703
upperback -7.43027 0.418815 0.171494
thorax -10.258 0.490548 2.13313
lowerneck -48.2323 -4.98285 -3.79884
upperneck 14.5843 -4.61531 2.21856
head 11.6313 -1.87749 0.50756
rclavicle -3.57812e-015 0
rhumerus 27.0486 -37.5291 -14.1091
rradius 65.5251
rwrist 0.990273
rhand -50.3126 -48.8644
rfingers 7.12502
rthumb -22.8891 -77.5259
lclavicle -3.57812e-015 0
lhumerus 44.4969 32.316 36.3695
lradius 61.7912
lwrist -3.45676
lhand -38.1947 -56.5238
lfingers 7.12502
lthumb -11.227 -26.8442
rfemur 34.5345 2.54361 20.1975
rtibia -18.1121
rfoot -11.5838 -17.7872
rtoes -2.78869
lfemur 38.7744 -0.406745 -13.9545
ltibia -30.1801
lfoot 3.85856 17.2914
ltoes -7.00417
681
root -0.779947 17.7164 7.79762 -7.86543 -1.14704 -4.34474
lowerback 3.70754 0.492664 -3.6588
upperback -7.01564 0.386238 0.414728
thorax -9.54486 0.473459 2.44544
lowerneck -48.4553 -4.85325 -3.67708
upperneck 14.2239 -4.48811 2.16456
head 11.502 -1.82317 0.496684
rclavicle 1.19271e-015 -1.19271e-014
rhumerus 28.8387 -38.4931 -14.6513
rradius 64.2169
rwrist 1.4003
rhand -50.1317 -48.3991
rfingers 7.12502
rthumb -22.7155 -77.0821
lclavicle 1.19271e-015 -1.19271e-014
lhumerus 44.988 33.454 36.2725
lradius 61.1083
lwrist -3.3611
lhand -37.5586 -56.4413
lfingers 7.12502
lthumb -10.6135 -26.7294
rfemur 33.895 2.69885 20.2903
rtibia -17.5428
rfoot -11.2731 -17.8508
rtoes -1.5725
lfemur 38.1374 -0.85272 -13.9915
ltibia -29.4515
lfoot 3.91289 17.7578
ltoes -5.19987
682
root -0.783195 17.7721 7.77971 -7.67602 -1.32769 -4.46272
lowerback 4.24506 0.599385 -3.2322
upperback -7.22217 0.535498 0.319044
thorax -10.0974 0.522021 2.08266
lowerneck -48.3639 -4.96651 -3.66106
upperneck 14.4225 -4.67647 2.24503
head 11.5796 -1.89093 0.488305
rclavicle 1.47101e-014 -6.36111e-015
rhumerus 29.2874 -38.7558 -14.4633
rradius 63.0903
rwrist 1.22872
rhand -49.8006 -47.7453
rfingers 7.12502
rthumb -22.3977 -76.4668
lclavicle 1.47101e-014 -6.36111e-015
lhumerus 45.2996 33.5706 35.681
lradius 60.3906
lwrist -2.85167
lhand -36.0814 -56.3797
lfingers 7.12502
lthumb -9.18835 -26.5998
rfemur 33.3076 2.83909 20.3993
rtibia -17.0868
rfoot -10.7225 -17.9709
rtoes -0.549886
lfemur 37.4964 -1.04702 -13.9348
ltibia -28.7002
lfoot 4.25502 18.0079
ltoes -7.61853
683
root -0.787376 17.818 7.754 -7.52302 -1.53613 -4.58913
lowerback 4.11176 0.603422 -3.19585
upperback -6.85127 0.572548 0.533644
thorax -9.60926 0.534406 2.28835
lowerneck -48.3515 -4.85476 -3.57184
upperneck 14.0525 -4.56979 2.20796
head 11.4257 -1.84747 0.485516
rclavicle 3.57812e-015 -1.19271e-014
rhumerus 30.7909 -39.7735 -14.836
rradius 61.8301
rwrist 1.15394
rhand -49.6083 -46.8296
rfingers 7.12502
rthumb -22.2131 -75.5732
lclavicle 3.57812e-015 -1.19271e-014
lhumerus 45.8161 34.6702 35.4113
lradius 59.6183
lwrist -2.67128
lhand -35.3174 -56.3331
lfingers 7.12502
lthumb -8.45112 -26.5222
rfemur 32.7285 2.96184 20.4923
rtibia -16.5886
rfoot -10.2406 -18.1268
rtoes 0.249671
lfemur 36.8992 -0.998218 -13.8351
ltibia -27.9908
lfoot 4.95109 17.9375
ltoes -14.5706
684
root -0.789888 17.8799 7.7284 -7.4189 -1.80424 -4.69874
lowerback 4.44321 0.687849 -2.93812
upperback -6.73858 0.704905 0.592512
thorax -9.68638 0.582282 2.18803
lowerneck -48.0812 -4.88065 -3.59887
upperneck 13.9806 -4.62619 2.30291
head 11.3762 -1.86185 0.518236
rclavicle -5.36719e-015 7.95139e-016
rhumerus 31.6538 -40.4403 -14.7741
rradius 60.5684
rwrist 1.41053
rhand -49.4041 -46.3004
rfingers 7.12502
rthumb -22.0171 -75.0673
lclavicle -5.36719e-015 7.95139e-016
lhumerus 46.1497 35.3147 34.6947
lradius 58.7931
lwrist -2.29279
lhand -35.212 -56.1006
lfingers 7.12502
lthumb -8.34933 -26.2856
rfemur 32.1854 3.04366 20.5258
rtibia -16.1308
rfoot -9.74264 -18.2334
rtoes 1.02562
lfemur 36.4039 -1.3723 -13.8569
ltibia -27.3385
lfoot 5.21984 18.4018
ltoes -16.1594
685
root -0.791656 17.9549 7.70229 -7.36629 -2.12584 -4.79522
lowerback 4.86458 0.786433 -2.73578
upperback -6.59965 0.853847 0.68874
thorax -9.79075 0.643847 2.15482
lowerneck -47.7705 -4.85779 -3.62758
upperneck 14.142 -4.6146 2.34144
head 11.4118 -1.85582 0.539811
rclavicle 2.98177e-014 -1.98785e-014
rhumerus 32.4184 -41.0539 -14.418
rradius 59.2429
rwrist 1.85661
rhand -49.0854 -46.5134
rfingers 7.12502
rthumb -21.7111 -75.3159
lclavicle 2.98177e-014 -1.98785e-014
lhumerus 46.3626 35.9927 33.7584
lradius 57.9038
lwrist -1.57371
lhand -35.0989 -55.6575
lfingers 7.12502
lthumb -8.2402 -25.8382
rfemur 31.6631 3.00451 20.5008
rtibia -15.6881
rfoot -8.98296 -18.249
rtoes 1.17473
lfemur 36.016 -2.07265 -13.9378
ltibia -26.7645
lfoot 4.95035 19.2431
ltoes -13.2029
686
root -0.796091 18.0131 7.6684 -7.35675 -2.43207 -4.87415
lowerback 5.37151 0.88042 -2.57097
upperback -6.42807 0.993265 0.788584
thorax -9.91032 0.703326 2.14581
lowerneck -47.2432 -4.85794 -3.78577
upperneck 14.048 -4.59742 2.47741
head 11.7519 -1.84079 0.599479
rclavicle -9.93923e-015 2.38542e-015
rhumerus 33.1219 -41.6151 -13.7512
rradius 57.7428
rwrist 1.68002
rhand -48.8716 -46.4455
rfingers 7.12502
rthumb -21.5057 -75.2716
lclavicle -9.93923e-015 2.38542e-015
lhumerus 46.5345 36.6878 32.7206
lradius 56.9034
lwrist -0.691182
lhand -35.697 -55.1201
lfingers 7.12502
lthumb -8.81747 -25.3243
rfemur 31.1416 2.92881 20.4729
rtibia -15.1551
rfoot -8.26749 -18.2303
rtoes 1.32337
lfemur 35.7135 -2.56714 -13.9629
ltibia -26.2925
lfoot 4.76218 19.7256
ltoes -11.9959
687
root -0.802274 18.0536 7.62693 -7.44603 -2.72756 -4.96073
lowerback 5.9801 0.96567 -2.38592
upperback -6.18128 1.12211 0.877035
thorax -10.0056 0.754347 2.11248
lowerneck -46.8136 -4.8286 -3.90641
upperneck 14.3641 -4.57025 2.64704
head 11.838 -1.81414 0.691437
rclavicle -1.92821e-014 -6.36111e-015
rhumerus 33.8689 -42.1887 -12.884
rradius 55.9247
rwrist 1.00664
rhand -48.6661 -45.9352
rfingers 7.12502
rthumb -21.3083 -74.7837
lclavicle -1.92821e-014 -6.36111e-015
lhumerus 46.8581 37.4664 31.6711
lradius 55.6469
lwrist -0.058188
lhand -37.0372 -54.6198
lfingers 7.12502
lthumb -10.1105 -24.8827
rfemur 30.7785 2.87301 20.4651
rtibia -14.7192
rfoot -7.70906 -18.1874
rtoes 2.11628
lfemur 35.5545 -2.95339 -13.9537
ltibia -25.8887
lfoot 4.66145 20.1637
ltoes -11.6284
688
root -0.807214 18.0834 7.58161 -7.64484 -3.0313 -5.04558
lowerback 6.64561 1.05364 -2.20579
upperback -5.8825 1.25446 0.954947
thorax -10.0768 0.806029 2.06803
lowerneck -45.9708 -4.75039 -3.94878
upperneck 14.5241 -4.54211 2.80128
head 11.8066 -1.79022 0.768578
rclavicle -3.1408e-014 -4.77083e-015
rhumerus 34.1525 -42.714 -11.1173
rradius 53.791
rwrist 0.0344998
rhand -48.3891 -45.8238
rfingers 7.12502
rthumb -21.0422 -74.7022
lclavicle -3.1408e-014 -4.77083e-015
lhumerus 47.2522 38.2231 30.3381
lradius 54.0485
lwrist 0.500004
lhand -37.6099 -53.8785
lfingers 7.12502
lthumb -10.663 -24.1691
rfemur 30.6591 2.64783 20.3687
rtibia -14.5648
rfoot -6.96395 -18.0138
rtoes 2.46235
lfemur 35.5339 -3.31389 -13.9457
ltibia -25.5104
lfoot 4.47657 20.6491
ltoes -11.2438
689
root -0.812618 18.0983 7.53156 -7.96195 -3.32216 -5.12957
lowerback 7.4493 1.14365 -2.03216
upperback -5.55802 1.38576 1.00058
thorax -10.2009 0.856436 1.98927
lowerneck -44.7933 -4.61406 -3.81657
upperneck 14.6319 -4.52446 2.83498
head 11.7018 -1.78319 0.770613
rclavicle -1.64991e-014 5.56597e-015
rhumerus 33.1244 -43.0693 -7.56827
rradius 51.5903
rwrist -1.7643
rhand -48.0836 -46.103
rfingers 7.12502
rthumb -20.7487 -75.0137
lclavicle -1.64991e-014 5.56597e-015
lhumerus 47.8204 38.8124 28.8456
lradius 52.074
lwrist 1.16452
lhand -37.5201 -52.9359
lfingers 7.12502
lthumb -10.5764 -23.2221
rfemur 30.7701 2.4129 20.2784
rtibia -14.5937
rfoot -6.24503 -17.7885
rtoes 2.31698
lfemur 35.6435 -3.51498 -13.8711
ltibia -25.1577
lfoot 4.27847 20.8229
ltoes -11.6532
690
root -0.820203 18.0959 7.47757 -8.39667 -3.59562 -5.18923
lowerback 8.35215 1.22764 -1.87259
upperback -5.20916 1.50648 1.0275
thorax -10.3555 0.90178 1.89658
lowerneck -43.5209 -4.48031 -3.69833
upperneck 14.9803 -4.52043 2.90655
head 11.6794 -1.77726 0.786388
rclavicle -1.09332e-014 3.97569e-015
rhumerus 33.8107 -43.3292 -5.90078
rradius 48.3822
rwrist -2.10934
rhand -47.9527 -46.2763
rfingers 7.12502
rthumb -20.623 -75.2007
lclavicle -1.09332e-014 3.97569e-015
lhumerus 48.8085 39.2931 27.8333
lradius 49.7449
lwrist 1.57995
lhand -37.3777 -52.054
lfingers 7.12502
lthumb -10.439 -22.3332
rfemur 31.0885 2.36153 20.2641
rtibia -14.7015
rfoot -5.86553 -17.5792
rtoes 2.29034
lfemur 35.9055 -3.63486 -13.7708
ltibia -24.8482
lfoot 3.94267 20.7857
ltoes -12.6431
